<svg width="20" height="20" viewBox="0 0 20 20" fill="none" xmlns="http://www.w3.org/2000/svg">
<g clip-path="url(#clip0_440_2101)">
<path d="M19.5834 10.1667C19.5834 9.5 19.5001 8.83333 19.4167 8.25H10.1667V11.9167H15.4167C15.1667 13.1667 14.5001 14.25 13.4167 14.9167V17.4167H16.6667C18.5834 15.6667 19.5834 13 19.5834 10.1667Z" fill="#4285F4"/>
<path d="M10.1667 20C12.8334 20 15.0834 19.0833 16.7501 17.5833L13.5001 15.0833C12.5834 15.6667 11.4167 16 10.1667 16C7.58342 16 5.41675 14.25 4.66675 11.9167H1.41675V14.5C3.08341 17.75 6.41675 20 10.1667 20Z" fill="#34A853"/>
<path d="M4.66667 11.9167C4.5 11.3333 4.33333 10.6667 4.33333 10C4.33333 9.33333 4.5 8.66667 4.66667 8.08333V5.5H1.41667C0.5 7.25 0 9.33333 0 11.9167C0 14.5 0.5 16.5833 1.41667 18.3333L4.66667 15.75V11.9167Z" fill="#FBBC05"/>
<path d="M10.1667 4C11.5834 4 12.9167 4.5 14.0001 5.5L16.8334 2.66667C15.0834 1 12.8334 0 10.1667 0C6.41675 0 3.08341 2.25 1.41675 5.5L4.66675 8.08333C5.41675 5.75 7.58342 4 10.1667 4Z" fill="#EA4335"/>
</g>
<defs>
<clipPath id="clip0_440_2101">
<rect width="20" height="20" fill="white"/>
</clipPath>
</defs>
</svg>
