<svg width="23" height="23" viewBox="0 0 23 23" fill="none" xmlns="http://www.w3.org/2000/svg">
<path d="M8.85 7.75L11.225 3.8L9.65 1.15C9.41667 0.816667 9.10417 0.65 8.7125 0.65C8.32083 0.65 8.01667 0.816667 7.8 1.15L5.15 5.55L8.85 7.75ZM19.25 15.075L16.875 11.075L20.6 8.925L22.325 11.825C22.5083 12.1417 22.6083 12.4833 22.625 12.85C22.6417 13.2167 22.5667 13.5667 22.4 13.9C22.2167 14.2667 21.9542 14.5542 21.6125 14.7625C21.2708 14.9708 20.8917 15.075 20.475 15.075H19.25ZM16.15 22.6L11.85 18.3L16.15 14V16.15H21.275L19.7 19.275C19.5167 19.6417 19.25 19.9292 18.9 20.1375C18.55 20.3458 18.175 20.45 17.775 20.45H16.15V22.6ZM5.725 20.45C5.375 20.45 5.05417 20.3583 4.7625 20.175C4.47083 19.9917 4.25 19.7417 4.1 19.425C3.96667 19.1417 3.9 18.8458 3.9 18.5375C3.9 18.2292 3.98333 17.9333 4.15 17.65L5.075 16.15H9.7V20.45H5.725ZM3.075 17.4L1.325 13.9C1.14167 13.5667 1.0625 13.2208 1.0875 12.8625C1.1125 12.5042 1.21667 12.1583 1.4 11.825L1.85 11.075L0 9.975L5.9 8.5L7.375 14.425L5.525 13.275L3.075 17.4ZM17.6 8.175L11.725 6.7L13.575 5.6L10.2 0H14C14.3833 0 14.7333 0.0958333 15.05 0.2875C15.3667 0.479167 15.6333 0.733333 15.85 1.05L17.25 3.4L19.1 2.25L17.6 8.175Z" fill="#8ED321"/>
</svg>
