<svg width="32" height="32" viewBox="0 0 32 32" fill="none" xmlns="http://www.w3.org/2000/svg">
<path d="M12.6851 25.0002C12.6851 25.5527 12.2376 26.0002 11.6851 26.0002H5.5276C4.6501 26.0002 3.8626 25.5452 3.4226 24.7852C2.9826 24.0252 2.9826 23.1152 3.4201 22.3552L7.4451 15.3752L5.8476 15.8052C5.3151 15.9477 4.7651 15.6327 4.6226 15.0977C4.4801 14.5652 4.7951 14.0152 5.3301 13.8727L9.2601 12.8152C9.2626 12.8152 9.2651 12.8152 9.2651 12.8152C9.3276 12.8002 9.3901 12.7877 9.4551 12.7852C9.4801 12.7827 9.5051 12.7877 9.5301 12.7877C9.5701 12.7877 9.6101 12.7877 9.6526 12.7927C9.6801 12.7977 9.7076 12.8052 9.7351 12.8102C9.7701 12.8177 9.8076 12.8227 9.8426 12.8352C9.8851 12.8502 9.9251 12.8702 9.9676 12.8902C9.9851 12.9002 10.0051 12.9052 10.0226 12.9152C10.0376 12.9227 10.0501 12.9352 10.0651 12.9452C10.1051 12.9702 10.1451 12.9977 10.1826 13.0302C10.2076 13.0527 10.2276 13.0777 10.2501 13.1002C10.2726 13.1227 10.2951 13.1452 10.3151 13.1727C10.3376 13.2002 10.3526 13.2327 10.3726 13.2627C10.3876 13.2877 10.4051 13.3127 10.4201 13.3377C10.4451 13.3902 10.4651 13.4452 10.4826 13.5002C10.4851 13.5077 10.4876 13.5152 10.4901 13.5227L11.5476 17.4527C11.6901 17.9852 11.3751 18.5352 10.8401 18.6777C10.7526 18.7002 10.6651 18.7127 10.5801 18.7127C10.1401 18.7127 9.7351 18.4177 9.6151 17.9727L9.1851 16.3752L5.1551 23.3552C5.0476 23.5427 5.1076 23.7052 5.1551 23.7852C5.2026 23.8652 5.3126 24.0002 5.5276 24.0002H11.6826C12.2376 24.0002 12.6851 24.4477 12.6851 25.0002ZM11.1701 10.9077C11.6476 11.1852 12.2601 11.0227 12.5376 10.5427L15.6226 5.21769C15.7301 5.03019 15.9026 5.00269 15.9951 5.00269C16.0876 5.00269 16.2601 5.03019 16.3676 5.21769L20.3976 12.1952L18.8001 11.7677C18.2651 11.6252 17.7176 11.9402 17.5751 12.4752C17.4326 13.0077 17.7501 13.5577 18.2826 13.7002L22.2126 14.7527H22.2151C22.2501 14.7627 22.2851 14.7677 22.3201 14.7727C22.3276 14.7727 22.3351 14.7752 22.3426 14.7777C22.3676 14.7802 22.3926 14.7802 22.4176 14.7827C22.4351 14.7827 22.4551 14.7852 22.4726 14.7852C22.5226 14.7852 22.5726 14.7802 22.6201 14.7727C22.6351 14.7702 22.6501 14.7677 22.6651 14.7627C22.7001 14.7552 22.7326 14.7477 22.7651 14.7377C22.7826 14.7327 22.7976 14.7277 22.8151 14.7202C22.8476 14.7077 22.8776 14.6952 22.9076 14.6802C22.9226 14.6727 22.9376 14.6652 22.9526 14.6577C22.9576 14.6552 22.9651 14.6527 22.9701 14.6477C22.9826 14.6402 22.9901 14.6302 23.0026 14.6252C23.0401 14.6027 23.0751 14.5777 23.1076 14.5502C23.1251 14.5352 23.1401 14.5202 23.1576 14.5052C23.1876 14.4777 23.2126 14.4477 23.2401 14.4177C23.2526 14.4027 23.2676 14.3852 23.2801 14.3702C23.3051 14.3352 23.3276 14.2952 23.3501 14.2577C23.3576 14.2427 23.3676 14.2302 23.3726 14.2152C23.3976 14.1602 23.4201 14.1052 23.4376 14.0427L24.4901 10.1127C24.6326 9.58019 24.3151 9.03019 23.7826 8.88769C23.2501 8.74519 22.7001 9.06269 22.5576 9.59519L22.1301 11.1927L18.1001 4.22019C17.6601 3.46019 16.8751 3.00519 15.9976 3.00519C15.9976 3.00519 15.9976 3.00519 15.9951 3.00519C15.1176 3.00519 14.3301 3.45769 13.8926 4.21769L10.8076 9.54269C10.5301 10.0202 10.6926 10.6302 11.1701 10.9077ZM28.5726 22.3527L25.4976 17.0252C25.2201 16.5477 24.6101 16.3827 24.1326 16.6602C23.6551 16.9377 23.4901 17.5477 23.7676 18.0252L26.8451 23.3527C26.9526 23.5402 26.8926 23.7027 26.8451 23.7827C26.7976 23.8627 26.6876 23.9977 26.4726 23.9977H18.4151L19.5851 22.8277C19.9751 22.4377 19.9751 21.8052 19.5851 21.4127C19.1951 21.0227 18.5601 21.0227 18.1701 21.4127L15.2926 24.2927C15.2451 24.3402 15.2051 24.3902 15.1676 24.4452C15.1526 24.4702 15.1401 24.4952 15.1276 24.5202C15.1101 24.5527 15.0901 24.5827 15.0776 24.6152C15.0651 24.6477 15.0551 24.6827 15.0451 24.7177C15.0376 24.7452 15.0251 24.7727 15.0201 24.8027C14.9951 24.9327 14.9951 25.0652 15.0201 25.1952C15.0251 25.2252 15.0376 25.2527 15.0451 25.2802C15.0551 25.3152 15.0626 25.3477 15.0776 25.3827C15.0926 25.4152 15.1101 25.4477 15.1276 25.4777C15.1426 25.5027 15.1526 25.5302 15.1676 25.5527C15.2051 25.6077 15.2451 25.6602 15.2926 25.7052L18.1701 28.5827C18.3651 28.7777 18.6201 28.8752 18.8776 28.8752C19.1351 28.8752 19.3901 28.7777 19.5851 28.5827C19.9751 28.1927 19.9751 27.5602 19.5851 27.1677L18.4151 26.0002H26.4701C27.3501 26.0002 28.1351 25.5452 28.5751 24.7852C29.0151 24.0252 29.0126 23.1152 28.5726 22.3527Z" fill="#84CC16"/>
</svg>
