<svg width="22" height="22" viewBox="0 0 22 22" fill="none" xmlns="http://www.w3.org/2000/svg">
<path d="M20.8 13.875L13.875 20.8C13.5702 21.1 13.2274 21.325 12.8464 21.475C12.4655 21.625 12.075 21.7 11.675 21.7C11.275 21.7 10.8845 21.625 10.5036 21.475C10.1226 21.325 9.77976 21.1 9.475 20.8L0.925 12.25C0.641667 11.9667 0.416667 11.6344 0.25 11.2531C0.0833333 10.8718 0 10.4707 0 10.05V3.125C0 2.26562 0.30599 1.52995 0.917969 0.917969C1.52995 0.30599 2.26562 0 3.125 0H10.05C10.4616 0 10.8603 0.0791667 11.2462 0.2375C11.6321 0.395833 11.9667 0.625 12.25 0.925L20.8 9.45C21.1167 9.76667 21.35 10.1167 21.5 10.5C21.65 10.8833 21.725 11.2742 21.725 11.6725C21.725 12.0708 21.65 12.4624 21.5 12.8475C21.35 13.2325 21.1167 13.575 20.8 13.875ZM11.675 18.55L18.55 11.675L10 3.15H3.15V10.025L11.675 18.55ZM5.59706 7.05C5.99902 7.05 6.34167 6.90931 6.625 6.62794C6.90833 6.34657 7.05 6.0049 7.05 5.60294C7.05 5.20098 6.90931 4.85833 6.62794 4.575C6.34657 4.29167 6.0049 4.15 5.60294 4.15C5.20098 4.15 4.85833 4.29069 4.575 4.57206C4.29167 4.85343 4.15 5.1951 4.15 5.59706C4.15 5.99902 4.29069 6.34167 4.57206 6.625C4.85343 6.90833 5.1951 7.05 5.59706 7.05Z" fill="#8ED321"/>
</svg>
