<svg width="32" height="32" viewBox="0 0 32 32" fill="none" xmlns="http://www.w3.org/2000/svg">
<path fill-rule="evenodd" clip-rule="evenodd" d="M11.9998 2.66669H6.6665C5.60517 2.66669 4.58784 3.08802 3.8385 3.83869C3.08784 4.58802 2.6665 5.60535 2.6665 6.66669C2.6665 8.08402 2.6665 9.95469 2.6665 12C2.6665 12.736 3.26384 13.3334 3.99984 13.3334C4.73584 13.3334 5.33317 12.736 5.33317 12V6.66669C5.33317 6.31335 5.47317 5.97335 5.72384 5.72402C5.97317 5.47335 6.31317 5.33335 6.6665 5.33335H11.9998C12.7358 5.33335 13.3332 4.73602 13.3332 4.00002C13.3332 3.26402 12.7358 2.66669 11.9998 2.66669ZM2.6665 18.6667V25.3333C2.6665 26.3947 3.08784 27.412 3.8385 28.1613C4.58784 28.912 5.60517 29.3333 6.6665 29.3333C7.76917 29.3333 9.1465 29.3333 10.6665 29.3333C11.4025 29.3333 11.9998 28.736 11.9998 28C11.9998 27.264 11.4025 26.6667 10.6665 26.6667H6.6665C6.31317 26.6667 5.97317 26.5267 5.72384 26.276C5.47317 26.0267 5.33317 25.6867 5.33317 25.3333V18.6667C5.33317 17.9307 4.73584 17.3334 3.99984 17.3334C3.26384 17.3334 2.6665 17.9307 2.6665 18.6667ZM19.9998 29.3333H25.3332C26.3945 29.3333 27.4118 28.912 28.1612 28.1613C28.9118 27.412 29.3332 26.3947 29.3332 25.3333C29.3332 23.916 29.3332 22.0453 29.3332 20C29.3332 19.264 28.7358 18.6667 27.9998 18.6667C27.2638 18.6667 26.6665 19.264 26.6665 20V25.3333C26.6665 25.6867 26.5265 26.0267 26.2758 26.276C26.0265 26.5267 25.6865 26.6667 25.3332 26.6667H19.9998C19.2638 26.6667 18.6665 27.264 18.6665 28C18.6665 28.736 19.2638 29.3333 19.9998 29.3333ZM29.3332 12V6.66669C29.3332 5.60535 28.9118 4.58802 28.1612 3.83869C27.4118 3.08802 26.3945 2.66669 25.3332 2.66669C23.9158 2.66669 22.0452 2.66669 19.9998 2.66669C19.2638 2.66669 18.6665 3.26402 18.6665 4.00002C18.6665 4.73602 19.2638 5.33335 19.9998 5.33335H25.3332C25.6865 5.33335 26.0265 5.47335 26.2758 5.72402C26.5265 5.97335 26.6665 6.31335 26.6665 6.66669V12C26.6665 12.736 27.2638 13.3334 27.9998 13.3334C28.7358 13.3334 29.3332 12.736 29.3332 12Z" fill="#FF8A3D"/>
<mask id="mask0_644_3377" style="mask-type:alpha" maskUnits="userSpaceOnUse" x="10" y="10" width="12" height="12">
<rect x="10.1816" y="10.1823" width="11.6364" height="11.6364" fill="#D9D9D9"/>
</mask>
<g mask="url(#mask0_644_3377)">
<path d="M13.0912 15.4913L12.6064 15.7579C12.4932 15.8226 12.372 15.8387 12.2427 15.8064C12.1134 15.7741 12.0165 15.7014 11.9518 15.5882L10.9821 13.8913C10.9175 13.7781 10.9013 13.6569 10.9336 13.5276C10.966 13.3983 11.0387 13.3014 11.1518 13.2367L13.9397 11.6367H14.7882C14.8609 11.6367 14.9195 11.6589 14.9639 11.7034C15.0084 11.7478 15.0306 11.8064 15.0306 11.8791V12.1216C15.0306 12.3882 15.1256 12.6165 15.3155 12.8064C15.5054 12.9963 15.7336 13.0913 16.0003 13.0913C16.267 13.0913 16.4953 12.9963 16.6852 12.8064C16.8751 12.6165 16.97 12.3882 16.97 12.1216V11.8791C16.97 11.8064 16.9922 11.7478 17.0367 11.7034C17.0811 11.6589 17.1397 11.6367 17.2124 11.6367H18.0609L20.8488 13.2367C20.9619 13.3014 21.0347 13.3983 21.067 13.5276C21.0993 13.6569 21.0831 13.7781 21.0185 13.8913L20.0488 15.5882C19.9841 15.7014 19.8892 15.7721 19.7639 15.8004C19.6387 15.8286 19.5155 15.8105 19.3942 15.7458L18.9094 15.5034V19.8791C18.9094 20.0165 18.8629 20.1317 18.77 20.2246C18.6771 20.3175 18.5619 20.364 18.4246 20.364H13.5761C13.4387 20.364 13.3235 20.3175 13.2306 20.2246C13.1377 20.1317 13.0912 20.0165 13.0912 19.8791V15.4913Z" fill="#FF8A3D"/>
</g>
</svg>
