<svg width="24" height="24" viewBox="0 0 24 24" fill="none" xmlns="http://www.w3.org/2000/svg">
<path d="M8.84961 15.375L10.0496 8.625H11.9246L10.7621 15.375H8.84961Z" fill="#3C58BF"/>
<path d="M8.84961 15.375L10.3871 8.625H11.9246L10.7621 15.375H8.84961Z" fill="#293688"/>
<path d="M17.55 8.69999C17.175 8.54999 16.575 8.39999 15.825 8.39999C13.95 8.39999 12.6 9.33749 12.6 10.6875C12.6 11.7 13.5375 12.225 14.2875 12.5625C15.0375 12.9 15.2625 13.125 15.2625 13.425C15.2625 13.875 14.6625 14.1 14.1375 14.1C13.3875 14.1 12.975 13.9875 12.3375 13.725L12.075 13.6125L11.8125 15.15C12.2625 15.3375 13.0875 15.525 13.95 15.525C15.9375 15.525 17.25 14.5875 17.25 13.1625C17.25 12.375 16.7625 11.775 15.6375 11.2875C14.9625 10.95 14.55 10.7625 14.55 10.425C14.55 10.125 14.8875 9.82499 15.6375 9.82499C16.275 9.82499 16.725 9.93749 17.0625 10.0875L17.25 10.1625L17.55 8.69999Z" fill="#3C58BF"/>
<path d="M17.55 8.69999C17.175 8.54999 16.575 8.39999 15.825 8.39999C13.95 8.39999 12.9375 9.33749 12.9375 10.6875C12.9375 11.7 13.5375 12.225 14.2875 12.5625C15.0375 12.9 15.2625 13.125 15.2625 13.425C15.2625 13.875 14.6625 14.1 14.1375 14.1C13.3875 14.1 12.975 13.9875 12.3375 13.725L12.075 13.6125L11.8125 15.15C12.2625 15.3375 13.0875 15.525 13.95 15.525C15.9375 15.525 17.25 14.5875 17.25 13.1625C17.25 12.375 16.7625 11.775 15.6375 11.2875C14.9625 10.95 14.55 10.7625 14.55 10.425C14.55 10.125 14.8875 9.82499 15.6375 9.82499C16.275 9.82499 16.725 9.93749 17.0625 10.0875L17.25 10.1625L17.55 8.69999Z" fill="#293688"/>
<path d="M20.7748 8.625C20.3248 8.625 19.9873 8.6625 19.7998 9.1125L16.9873 15.375H19.0123L19.3873 14.25H21.7873L22.0123 15.375H23.8123L22.2373 8.625H20.7748ZM19.9123 13.125C20.0248 12.7875 20.6623 11.1375 20.6623 11.1375C20.6623 11.1375 20.8123 10.725 20.9248 10.4625L21.0373 11.1C21.0373 11.1 21.4123 12.7875 21.4873 13.1625H19.9123V13.125Z" fill="#3C58BF"/>
<path d="M21.2248 8.625C20.7748 8.625 20.4373 8.6625 20.2498 9.1125L16.9873 15.375H19.0123L19.3873 14.25H21.7873L22.0123 15.375H23.8123L22.2373 8.625H21.2248ZM19.9123 13.125C20.0623 12.75 20.6623 11.1375 20.6623 11.1375C20.6623 11.1375 20.8123 10.725 20.9248 10.4625L21.0373 11.1C21.0373 11.1 21.4123 12.7875 21.4873 13.1625H19.9123V13.125Z" fill="#293688"/>
<path d="M5.40039 13.35L5.21289 12.375C4.87539 11.25 3.78789 10.0125 2.58789 9.41251L4.27539 15.4125H6.30039L9.33789 8.66251H7.31289L5.40039 13.35Z" fill="#3C58BF"/>
<path d="M5.40039 13.35L5.21289 12.375C4.87539 11.25 3.78789 10.0125 2.58789 9.41251L4.27539 15.4125H6.30039L9.33789 8.66251H7.68789L5.40039 13.35Z" fill="#293688"/>
<path d="M0.1875 8.625L0.525 8.7C2.925 9.2625 4.575 10.6875 5.2125 12.375L4.5375 9.1875C4.425 8.7375 4.0875 8.625 3.675 8.625H0.1875Z" fill="#FFBC00"/>
<path d="M0.1875 8.625C2.5875 9.1875 4.575 10.65 5.2125 12.3375L4.575 9.675C4.4625 9.225 4.0875 8.9625 3.675 8.9625L0.1875 8.625Z" fill="#F7981D"/>
<path d="M0.1875 8.625C2.5875 9.1875 4.575 10.65 5.2125 12.3375L4.7625 10.875C4.65 10.425 4.5 9.975 3.975 9.7875L0.1875 8.625Z" fill="#ED7C00"/>
<path d="M7.275 13.125L6 11.85L5.4 13.275L5.25 12.3375C4.9125 11.2125 3.825 9.975 2.625 9.375L4.3125 15.375H6.3375L7.275 13.125ZM10.7625 15.375L9.15 13.725L8.85 15.375H10.7625ZM15.075 13.05C15.225 13.2 15.3 13.3125 15.2625 13.4625C15.2625 13.9125 14.6625 14.1375 14.1375 14.1375C13.3875 14.1375 12.975 14.025 12.3375 13.7625L12.075 13.65L11.8125 15.1875C12.2625 15.375 13.0875 15.5625 13.95 15.5625C15.15 15.5625 16.125 15.225 16.6875 14.625L15.075 13.05ZM17.25 15.375H19.0125L19.3875 14.25H21.7875L22.0125 15.375H23.8125L23.175 12.6375L20.925 10.4625L21.0375 11.0625C21.0375 11.0625 21.4125 12.75 21.4875 13.125H19.9125C20.0625 12.75 20.6625 11.1375 20.6625 11.1375C20.6625 11.1375 20.8125 10.725 20.925 10.4625" fill="#051244"/>
</svg>
